# AST/ASF file generated using VICON BodyLanguage
# -----------------------------------------------
:version 1.10
:name VICON
:units
  mass 1.0
  length 0.45
  angle deg
:documentation
   .ast/.asf automatically generated from VICON data using
   VICON BodyBuilder and BodyLanguage model FoxedUp or BRILLIANT.MOD
:root
   order TX TY TZ RX RY RZ
   axis XYZ
   position 0 0 0  
   orientation 0 0 0 
:bonedata
  begin
     id 1 
     name lhipjoint
     direction 0.624716 -0.669793 0.401383 
     length 2.38238 
     axis 0 0 0  XYZ
  end
  begin
     id 2 
     name lfemur
     direction 0.34202 -0.939693 0  
     length 6.4574  
     axis 0 0 20  XYZ
    dof rx ry rz
    limits (-160.0 20.0)
           (-70.0 70.0)
           (-60.0 70.0)
  end
  begin
     id 3 
     name ltibia
     direction 0.34202 -0.939693 0   
     length 7.68739   
     axis 0 0 20   XYZ
    dof rx
    limits (-10.0 170.0)
  end
  begin
     id 4 
     name lfoot
     direction 0.0681309 -0.187188 0.979959   
     length 2.46615   
     axis -90 7.62852e-016 20   XYZ
    dof rx rz
    limits (-45.0 90.0)
           (-70.0 20.0)
  end
  begin
     id 5 
     name ltoes
     direction 1.53566e-011 -4.21819e-011 1   
     length 1.2376   
     axis -90 7.62852e-016 20   XYZ
    dof rx
    limits (-90.0 20.0)
  end
  begin
     id 6 
     name rhipjoint
     direction -0.644473 -0.655875 0.393043   
     length 2.43293  
     axis 0 0 0  XYZ 
  end
  begin
     id 7 
     name rfemur
     direction -0.34202 -0.939693 0   
     length 6.7025   
     axis 0 0 -20   XYZ
    dof rx ry rz
    limits (-160.0 20.0)
           (-70.0 70.0)
           (-70.0 60.0)
  end
  begin
     id 8 
     name rtibia
     direction -0.34202 -0.939693 0   
     length 7.80547   
     axis 0 0 -20   XYZ
    dof rx
    limits (-10.0 170.0)
 end
 begin
     id 9 
     name rfoot
     direction -0.0756734 -0.207911 0.975216   
     length 2.40315  
     axis -90 -7.62852e-016 -20   XYZ
    dof rx rz
    limits (-45.0 90.0)
           (-20.0 70.0)
  end
  begin
     id 10 
     name rtoes
     direction -1.5353e-011 -4.21879e-011 1   
     length 1.20477   
     axis -90 -7.62852e-016 -20   XYZ
    dof rx
    limits (-90.0 20.0)
  end
  begin
     id 11 
     name lowerback
     direction 0.0160353 0.987463 -0.157037   
     length 2.18572   
     axis 0 0 0   XYZ
    dof rx ry rz
    limits (-20.0 45.0)
           (-30.0 30.0)
           (-30.0 30.0)
  end
  begin
     id 12 
     name upperback
     direction -0.00499661 0.999756 0.0215076   
     length 2.18016   
     axis 0 0 0   XYZ
    dof rx ry rz
    limits (-20.0 45.0)
           (-30.0 30.0)
           (-30.0 30.0)
  end
  begin
     id 13 
     name thorax
     direction -0.00921346 0.995333 0.0960619   
     length 2.24923   
     axis 0 0 0   XYZ
    dof rx ry rz
    limits (-20.0 45.0)
           (-30.0 30.0)
           (-30.0 30.0)
  end
  begin
     id 14 
     name lowerneck
     direction 0.0274184 0.991181 0.12965   
     length 1.70911   
     axis 0 0 0   XYZ
    dof rx ry rz
    limits (-20.0 45.0)
           (-30.0 30.0)
           (-30.0 30.0)
  end
  begin
     id 15 
     name upperneck
     direction 0.0015627 0.999959 -0.00893559   
     length 1.69312   
     axis 0 0 0   XYZ
    dof rx ry rz
    limits (-20.0 45.0)
           (-30.0 30.0)
           (-30.0 30.0)
  end
  begin
     id 16
     name head
     direction -0.00230242 0.999856 -0.0168327  
     length 1.80241  
     axis 0 0 0   XYZ
    dof rx ry rz
    limits (-20.0 45.0)
           (-30.0 30.0)
           (-30.0 30.0)
  end
  begin
     id 17 
     name lclavicle
     direction 0.955523 0.290741 -0.0494489  
     length 3.84275  
     axis 0 0 0   XYZ
    dof ry rz
    limits (-20.0 10.0)
           (0.0 20.0)
  end
  begin
     id 18 
     name lhumerus
     direction 1 -4.48967e-011 -3.18382e-028   
     length 5.17714   
     axis 180 -30 -90   XYZ
    dof rx ry rz
    limits (-60.0 90.0)
           (-90.0 90.0)
           (-90.0 90.0)
  end
  begin
     id 19
     name lradius
     direction 1 -4.48968e-011 -2.22911e-027   
     length 3.43679   
     axis 180 -30 -90   XYZ
    dof rx
    limits (-10.0 170.0)
  end
  begin
     id 20
     name lwrist
     direction 1 -4.48951e-011 -6.32245e-027   
     length 1.7184   
     axis 3.57107e-015 90 90   XYZ
    dof ry
    limits (-180.0 0.0)
 end
  begin
     id 21 
     name lhand
     direction 1 -4.48924e-011 -1.26431e-026   
     length 0.573117   
     axis 8.06912e-015 90 90   XYZ
    dof rx rz
    limits (-90.0 90.0)
           (-45.0 45.0)
  end
  begin
     id 22 
     name lfingers
     direction 1 -4.49001e-011 -2.52965e-026   
     length 0.462062   
     axis 1.61381e-014 90 90   XYZ
    dof rx
    limits (0.0 90.0)
  end
  begin
     id 23
     name lthumb
     direction 0.707107 -6.35008e-011 0.707107   
     length 0.663431   
     axis -90 45 -1.62303e-014   XYZ
    dof rx rz
    limits (-45.0 45.0)
           (-45.0 45.0)
  end
  begin
     id 24 
     name rclavicle
     direction -0.963917 0.256881 -0.0698287   
     length 3.73057  
     axis 0 0 0   XYZ 
    dof ry rz
    limits (-10.0 20.0)
           (-20.0 0.0)
  end
  begin
     id 25 
     name rhumerus
     direction -1 -4.48962e-011 -2.73982e-027  
     length 5.23908   
     axis 180 30 90   XYZ
    dof rx ry rz
    limits (-90.0 60.0)
           (-90.0 90.0)
           (-90.0 90.0)
  end
  begin
     id 26 
     name rradius
     direction -1 -4.48968e-011 -4.33218e-027   
     length 3.46485   
     axis 180 30 90   XYZ
    dof rx
    limits (-10.0 170.0)
  end
  begin
     id 27 
     name rwrist
     direction -1 -4.48989e-011 -6.32372e-027   
     length 1.73243   
     axis 3.57107e-015 -90 -90   XYZ
    dof ry
    limits (-180.0 0.0)
  end
  begin
     id 28
     name rhand
     direction -1 -4.48948e-011 -1.26448e-026   
     length 0.608752   
     axis 8.06912e-015 -90 -90   XYZ
    dof rx rz
    limits (-90.0 90.0)
           (-45.0 45.0)
  end
  begin
     id 29
     name rfingers
     direction -1 -4.48962e-011 -2.52913e-026   
     length 0.490792   
     axis 1.61381e-014 -90 -90   XYZ
    dof rx
    limits (0.0 90.0)
  end
  begin
     id 30
     name rthumb
     direction -0.707107 -6.34878e-011 0.707107   
     length 0.704682   
     axis -90 -45 1.62303e-014   XYZ
    dof rx rz
    limits (-45.0 45.0)
           (-45.0 45.0)
  end
:hierarchy
  begin
    root lhipjoint rhipjoint lowerback
    lhipjoint lfemur
    lfemur ltibia
    ltibia lfoot
    lfoot ltoes
    rhipjoint rfemur
    rfemur rtibia
    rtibia rfoot
    rfoot rtoes
    lowerback upperback
    upperback thorax
    thorax lowerneck lclavicle rclavicle
    lowerneck upperneck
    upperneck head
    lclavicle lhumerus
    lhumerus lradius
    lradius lwrist
    lwrist lhand lthumb
    lhand lfingers
    rclavicle rhumerus
    rhumerus rradius
    rradius rwrist
    rwrist rhand rthumb
    rhand rfingers
  end

#!OML:ASF G:\JayActor3\Patient Classification 1\Patient 1\Session 6\male.ASF
:FULLY-SPECIFIED
:DEGREES
1
root 49.562 15.9485 17.8014 177.699 -17.7985 -175.393
lowerback -3.32853 -0.0448319 3.89721
upperback 3.94342 -0.498333 1.36329
thorax 5.95274 -0.161914 -0.813189
lowerneck -2.52046 3.83668 5.71474
upperneck 8.92441 5.00192 -4.10059
head 3.65048 2.44664 -2.1765
rclavicle 3.32188e-015 -2.83392e-014
rhumerus -29.0219 -3.73459 -84.5137
rradius 30.5084
rwrist -0.170901
rhand -21.7704 -9.10896
rfingers 7.12502
rthumb 4.63046 -39.0383
lclavicle 3.32188e-015 -2.83392e-014
lhumerus -28.8072 1.76012 86.467
lradius 29.7438
lwrist 26.9468
lhand -16.2938 6.96137
lfingers 7.12502
lthumb 9.91674 36.7078
rfemur -8.40931 -1.48391 25.9741
rtibia 34.4829
rfoot -28.2957 -17.2517
rtoes 2.93765
lfemur -6.4626 8.61077 -14.2978
ltibia 29.3988
lfoot -21.7966 8.48242
ltoes 0.705462
2
root 49.5608 15.9497 17.7979 177.739 -17.7686 -175.393
lowerback -3.35304 0.00335933 3.93684
upperback 3.92927 -0.435197 1.35087
thorax 5.95447 -0.128251 -0.843022
lowerneck -2.44294 3.78939 5.60937
upperneck 8.79077 4.93891 -3.97685
head 3.57586 2.41853 -2.1185
rclavicle 3.29439e-014 1.06971e-014
rhumerus -29.0685 -3.90553 -84.4242
rradius 30.4648
rwrist -0.131401
rhand -21.7684 -9.03583
rfingers 7.12502
rthumb 4.63238 -38.9652
lclavicle 3.29439e-014 1.06971e-014
lhumerus -28.7661 1.65163 86.5255
lradius 29.632
lwrist 26.9243
lhand -16.3632 6.94015
lfingers 7.12502
lthumb 9.8498 36.6898
rfemur -8.42672 -1.47114 25.978
rtibia 34.4514
rfoot -28.1979 -17.3168
rtoes 3.13828
lfemur -6.48977 8.61202 -14.2995
ltibia 29.4057
lfoot -21.6424 8.50855
ltoes 0.285311
3
root 49.5584 15.9506 17.7949 177.752 -17.7439 -175.352
lowerback -3.35083 0.0581876 4.08416
upperback 3.90647 -0.362218 1.2653
thorax 5.93186 -0.0829266 -1.00816
lowerneck -2.42081 3.74804 5.74129
upperneck 8.74036 4.86979 -3.88001
head 3.55143 2.39335 -2.11281
rclavicle -5.89598e-015 1.78533e-014
rhumerus -29.1439 -4.18347 -84.4539
rradius 30.4084
rwrist -0.0723986
rhand -21.7218 -9.1036
rfingers 7.12502
rthumb 4.67737 -39.032
lclavicle -5.89598e-015 1.78533e-014
lhumerus -28.7896 1.35459 86.5004
lradius 29.5571
lwrist 26.9776
lhand -16.4698 6.86037
lfingers 7.12502
lthumb 9.74692 36.6148
rfemur -8.42325 -1.40209 26.0306
rtibia 34.4255
rfoot -28.1713 -17.3644
rtoes 3.1426
lfemur -6.51044 8.50491 -14.2712
ltibia 29.4196
lfoot -21.5046 8.61301
ltoes 0.0170881
4
root 49.5579 15.9507 17.7911 177.792 -17.7183 -175.32
lowerback -3.36912 -0.0142096 4.02069
upperback 3.89535 -0.461956 1.34614
thorax 5.92658 -0.137971 -0.897135
lowerneck -2.40834 3.79103 5.64908
upperneck 8.70932 4.94076 -3.96733
head 3.542 2.42236 -2.12264
rclavicle 1.75109e-014 -1.31074e-015
rhumerus -29.0842 -4.06219 -84.3903
rradius 30.253
rwrist 0.0706154
rhand -21.7808 -9.12776
rfingers 7.12502
rthumb 4.62043 -39.0574
lclavicle 1.75109e-014 -1.31074e-015
lhumerus -28.8233 1.77159 86.4974
lradius 29.4596
lwrist 26.8207
lhand -16.4394 6.86319
lfingers 7.12502
lthumb 9.77626 36.6163
rfemur -8.45231 -1.36624 26.0692
rtibia 34.4013
rfoot -28.3089 -17.256
rtoes 3.25724
lfemur -6.56162 8.70539 -14.2389
ltibia 29.4322
lfoot -21.2838 8.62113
ltoes -0.716854
5
root 49.5568 15.9512 17.7875 177.823 -17.6918 -175.286
lowerback -3.38439 -0.0212379 4.04612
upperback 3.8812 -0.473239 1.35299
thorax 5.91993 -0.142714 -0.905232
lowerneck -2.3896 3.7868 5.64916
upperneck 8.66655 4.93637 -3.96655
head 3.52316 2.42082 -2.12271
rclavicle 2.98689e-014 -5.97596e-015
rhumerus -29.0807 -4.16579 -84.3545
rradius 30.1298
rwrist 0.179991
rhand -21.8108 -9.14415
rfingers 7.12502
rthumb 4.59147 -39.0744
lclavicle 2.98689e-014 -5.97596e-015
lhumerus -28.8285 1.8475 86.4863
lradius 29.3499
lwrist 26.7635
lhand -16.43 6.85517
lfingers 7.12502
lthumb 9.78528 36.6078
rfemur -8.46932 -1.32691 26.1112
rtibia 34.3746
rfoot -28.334 -17.2455
rtoes 3.373
lfemur -6.59885 8.76581 -14.2087
ltibia 29.4464
lfoot -21.1363 8.63629
ltoes -1.06785
6
root 49.5558 15.9516 17.7837 177.852 -17.6641 -175.249
lowerback -3.40444 -0.0282028 4.07541
upperback 3.87088 -0.484963 1.35639
thorax 5.92002 -0.147292 -0.91914
lowerneck -2.37774 3.78261 5.66313
upperneck 8.63118 4.93127 -3.96977
head 3.50892 2.41913 -2.12665
rclavicle 7.63908e-014 -7.34261e-015
rhumerus -29.0691 -4.29344 -84.3245
rradius 29.9889
rwrist 0.299481
rhand -21.8505 -9.15859
rfingers 7.12502
rthumb 4.55317 -39.0897
lclavicle 7.63908e-014 -7.34261e-015
lhumerus -28.8248 1.921 86.4631
lradius 29.2262
lwrist 26.7144
lhand -16.408 6.84016
lfingers 7.12502
lthumb 9.80658 36.5918
rfemur -8.4864 -1.29391 26.156
rtibia 34.3503
rfoot -28.3572 -17.2316
rtoes 3.50353
lfemur -6.63181 8.81557 -14.1734
ltibia 29.4592
lfoot -21.0328 8.62781
ltoes -1.22997
7
root 49.5547 15.9519 17.7798 177.88 -17.634 -175.215
lowerback -3.42781 -0.0312539 4.10243
upperback 3.8624 -0.491359 1.357
thorax 5.92419 -0.149149 -0.934238
lowerneck -2.3664 3.78004 5.67436
upperneck 8.59904 4.92729 -3.959
head 3.49531 2.41839 -2.12527
rclavicle 8.80602e-015 5.1486e-015
rhumerus -29.0582 -4.44742 -84.291
rradius 29.8353
rwrist 0.430986
rhand -21.8942 -9.16488
rfingers 7.12502
rthumb 4.51092 -39.0968
lclavicle 8.80602e-015 5.1486e-015
lhumerus -28.8133 1.98983 86.4344
lradius 29.0851
lwrist 26.6627
lhand -16.3778 6.82419
lfingers 7.12502
lthumb 9.83565 36.5745
rfemur -8.4993 -1.27312 26.1956
rtibia 34.3207
rfoot -28.3649 -17.213
rtoes 3.65202
lfemur -6.65886 8.84373 -14.1398
ltibia 29.4708
lfoot -20.9842 8.60443
ltoes -1.21031
8
root 49.5537 15.9524 17.7757 177.906 -17.604 -175.179
lowerback -3.45381 -0.023197 4.14254
upperback 3.85366 -0.482918 1.34678
thorax 5.93017 -0.142658 -0.966671
lowerneck -2.35072 3.77255 5.69747
upperneck 8.56856 4.91457 -3.9288
head 3.48067 2.41443 -2.11989
rclavicle -3.67208e-014 7.29912e-015
rhumerus -29.0597 -4.64896 -84.2569
rradius 29.6764
rwrist 0.56372
rhand -21.9201 -9.1512
rfingers 7.12502
rthumb 4.48591 -39.0837
lclavicle -3.67208e-014 7.29912e-015
lhumerus -28.8019 2.02223 86.4016
lradius 28.9319
lwrist 26.6126
lhand -16.358 6.79311
lfingers 7.12502
lthumb 9.85477 36.5425
rfemur -8.50823 -1.25999 26.2353
rtibia 34.2883
rfoot -28.3508 -17.2
rtoes 3.77993
lfemur -6.68176 8.84985 -14.1038
ltibia 29.4819
lfoot -20.9798 8.59574
ltoes -1.14886
9
root 49.5526 15.953 17.7715 177.93 -17.5731 -175.143
lowerback -3.478 -0.0150476 4.18113
upperback 3.84493 -0.474292 1.33773
thorax 5.93516 -0.136212 -0.997005
lowerneck -2.32829 3.76657 5.71295
upperneck 8.53819 4.90383 -3.89053
head 3.46428 2.41145 -2.11038
rclavicle 1.66855e-014 9.03228e-015
rhumerus -29.0663 -4.84741 -84.2208
rradius 29.513
rwrist 0.695375
rhand -21.9323 -9.13472
rfingers 7.12502
rthumb 4.47412 -39.0675
lclavicle 1.66855e-014 9.03228e-015
lhumerus -28.7917 2.06646 86.3662
lradius 28.7672
lwrist 26.5613
lhand -16.358 6.74649
lfingers 7.12502
lthumb 9.85479 36.4959
rfemur -8.51248 -1.25213 26.2727
rtibia 34.2537
rfoot -28.335 -17.1777
rtoes 3.8911
lfemur -6.6994 8.83181 -14.0684
ltibia 29.4933
lfoot -21.0089 8.61018
ltoes -1.09501
10
root 49.5514 15.9535 17.7674 177.951 -17.5417 -175.105
lowerback -3.50057 -0.000713689 4.22562
upperback 3.83205 -0.457537 1.33045
thorax 5.93526 -0.125634 -1.02809
lowerneck -2.29401 3.75534 5.72409
upperneck 8.51172 4.88639 -3.85097
head 3.44641 2.40496 -2.10012
rclavicle -2.01223e-014 2.10712e-014
rhumerus -29.0878 -5.06501 -84.1721
rradius 29.3476
rwrist 0.829928
rhand -21.9413 -9.12029
rfingers 7.12502
rthumb 4.46544 -39.0532
lclavicle -2.01223e-014 2.10712e-014
lhumerus -28.7957 2.1195 86.3372
lradius 28.5974
lwrist 26.489
lhand -16.3756 6.70127
lfingers 7.12502
lthumb 9.83781 36.4514
rfemur -8.51431 -1.24599 26.3125
rtibia 34.217
rfoot -28.3133 -17.1541
rtoes 3.9114
lfemur -6.71726 8.81919 -14.0299
ltibia 29.5063
lfoot -21.047 8.65681
ltoes -1.17059
11
root 49.5503 15.954 17.7633 177.972 -17.5108 -175.064
lowerback -3.52099 0.0135598 4.26747
upperback 3.81583 -0.440905 1.32982
thorax 5.93066 -0.115559 -1.05078
lowerneck -2.2586 3.74341 5.72923
upperneck 8.49426 4.86872 -3.81837
head 3.4315 2.39774 -2.09118
rclavicle 5.79271e-015 -2.5842e-015
rhumerus -29.1152 -5.28479 -84.113
rradius 29.1794
rwrist 0.969913
rhand -21.9458 -9.10824
rfingers 7.12502
rthumb 4.46113 -39.0413
lclavicle 5.79271e-015 -2.5842e-015
lhumerus -28.8054 2.19204 86.3111
lradius 28.4207
lwrist 26.4041
lhand -16.3815 6.68733
lfingers 7.12502
lthumb 9.8321 36.4378
rfemur -8.51706 -1.23679 26.3554
rtibia 34.1795
rfoot -28.2899 -17.1358
rtoes 3.84944
lfemur -6.73867 8.81969 -13.9888
ltibia 29.5209
lfoot -21.071 8.72313
ltoes -1.37432
12
root 49.549 15.9544 17.7593 177.992 -17.4781 -175.023
lowerback -3.53868 0.0269644 4.30942
upperback 3.79962 -0.425668 1.3328
thorax 5.92451 -0.106368 -1.06989
lowerneck -2.22443 3.72953 5.73193
upperneck 8.48453 4.84965 -3.80185
head 3.41998 2.38903 -2.08731
rclavicle 5.66567e-014 -2.94698e-014
rhumerus -29.144 -5.49498 -84.0525
rradius 29.0109
rwrist 1.10558
rhand -21.9488 -9.09888
rfingers 7.12502
rthumb 4.45817 -39.032
lclavicle 5.66567e-014 -2.94698e-014
lhumerus -28.8118 2.27058 86.2865
lradius 28.2341
lwrist 26.3302
lhand -16.385 6.692
lfingers 7.12502
lthumb 9.82871 36.4426
rfemur -8.51808 -1.22 26.4001
rtibia 34.1427
rfoot -28.2708 -17.1209
rtoes 3.7983
lfemur -6.75827 8.81438 -13.9479
ltibia 29.5372
lfoot -21.0969 8.79131
ltoes -1.55526
13
root 49.5477 15.9547 17.7555 178.009 -17.441 -174.983
lowerback -3.55316 0.0401131 4.3467
upperback 3.78446 -0.410836 1.34059
thorax 5.91766 -0.0978041 -1.08142
lowerneck -2.20162 3.72107 5.72495
upperneck 8.4868 4.83789 -3.78663
head 3.4149 2.38342 -2.08169
rclavicle 7.72465e-015 2.03009e-014
rhumerus -29.1724 -5.70133 -83.9853
rradius 28.8415
rwrist 1.2478
rhand -21.948 -9.08424
rfingers 7.12502
rthumb 4.45895 -39.0173
lclavicle 7.72465e-015 2.03009e-014
lhumerus -28.8137 2.36508 86.2626
lradius 28.0376
lwrist 26.2504
lhand -16.3726 6.71498
lfingers 7.12502
lthumb 9.84069 36.465
rfemur -8.51792 -1.19206 26.445
rtibia 34.1088
rfoot -28.2458 -17.1233
rtoes 3.7213
lfemur -6.77358 8.80707 -13.9094
ltibia 29.5528
lfoot -21.1241 8.85249
ltoes -1.68543
14
root 49.5463 15.9548 17.7515 178.026 -17.4006 -174.947
lowerback -3.56998 0.0539637 4.38397
upperback 3.77381 -0.395336 1.34554
thorax 5.91695 -0.0887216 -1.09582
lowerneck -2.18715 3.71598 5.71654
upperneck 8.49024 4.83019 -3.76767
head 3.41185 2.37991 -2.07426
rclavicle 4.95657e-014 2.09221e-014
rhumerus -29.1975 -5.90293 -83.9242
rradius 28.6746
rwrist 1.38934
rhand -21.9499 -9.07319
rfingers 7.12502
rthumb 4.45719 -39.0063
lclavicle 4.95657e-014 2.09221e-014
lhumerus -28.8041 2.46126 86.2317
lradius 27.8284
lwrist 26.1703
lhand -16.3456 6.73424
lfingers 7.12502
lthumb 9.86674 36.483
rfemur -8.51804 -1.15872 26.4868
rtibia 34.0793
rfoot -28.2219 -17.1326
rtoes 3.66652
lfemur -6.78422 8.79677 -13.8747
ltibia 29.5662
lfoot -21.1539 8.90327
ltoes -1.74429
